<svg xmlns="http://www.w3.org/2000/svg" version="1.1" width="300" height="300.0"><line x1="1.0" y1="299.0" x2="75.5" y2="299.0" style="stroke:#7856FA;stroke-width:1"/><line x1="1.0" y1="299.0" x2="75.5" y2="224.5" style="stroke:#7856FA;stroke-width:1"/><line x1="75.5" y1="299.0" x2="75.5" y2="224.5" style="stroke:#7856FA;stroke-width:1"/><line x1="150.0" y1="299.0" x2="224.5" y2="299.0" style="stroke:#7856FA;stroke-width:1"/><line x1="150.0" y1="299.0" x2="150.0" y2="224.5" style="stroke:#7856FA;stroke-width:1"/><line x1="224.5" y1="299.0" x2="150.0" y2="224.5" style="stroke:#7856FA;stroke-width:1"/><line x1="299.0" y1="299.0" x2="224.5" y2="224.5" style="stroke:#7856FA;stroke-width:1"/><line x1="299.0" y1="299.0" x2="299.0" y2="224.5" style="stroke:#7856FA;stroke-width:1"/><line x1="224.5" y1="224.5" x2="299.0" y2="224.5" style="stroke:#7856FA;stroke-width:1"/><line x1="1.0" y1="299.0" x2="1.0" y2="224.5" style="stroke:#7856FA;stroke-width:1"/><line x1="1.0" y1="299.0" x2="75.5" y2="224.5" style="stroke:#7856FA;stroke-width:1"/><line x1="1.0" y1="224.5" x2="75.5" y2="224.5" style="stroke:#7856FA;stroke-width:1"/><line x1="1.0" y1="150.0" x2="75.5" y2="150.0" style="stroke:#7856FA;stroke-width:1"/><line x1="1.0" y1="150.0" x2="1.0" y2="75.5" style="stroke:#7856FA;stroke-width:1"/><line x1="75.5" y1="150.0" x2="1.0" y2="75.5" style="stroke:#7856FA;stroke-width:1"/><line x1="150.0" y1="150.0" x2="75.5" y2="75.5" style="stroke:#7856FA;stroke-width:1"/><line x1="150.0" y1="150.0" x2="150.0" y2="75.5" style="stroke:#7856FA;stroke-width:1"/><line x1="75.5" y1="75.5" x2="150.0" y2="75.5" style="stroke:#7856FA;stroke-width:1"/><line x1="150.0" y1="150.0" x2="150.0" y2="75.5" style="stroke:#7856FA;stroke-width:1"/><line x1="150.0" y1="150.0" x2="224.5" y2="75.5" style="stroke:#7856FA;stroke-width:1"/><line x1="150.0" y1="75.5" x2="224.5" y2="75.5" style="stroke:#7856FA;stroke-width:1"/><line x1="150.0" y1="150.0" x2="224.5" y2="150.0" style="stroke:#7856FA;stroke-width:1"/><line x1="150.0" y1="150.0" x2="224.5" y2="75.5" style="stroke:#7856FA;stroke-width:1"/><line x1="224.5" y1="150.0" x2="224.5" y2="75.5" style="stroke:#7856FA;stroke-width:1"/><line x1="150.0" y1="299.0" x2="75.5" y2="299.0" style="stroke:#7856FA;stroke-width:1"/><line x1="150.0" y1="299.0" x2="150.0" y2="224.5" style="stroke:#7856FA;stroke-width:1"/><line x1="75.5" y1="299.0" x2="150.0" y2="224.5" style="stroke:#7856FA;stroke-width:1"/><line x1="299.0" y1="299.0" x2="224.5" y2="299.0" style="stroke:#7856FA;stroke-width:1"/><line x1="299.0" y1="299.0" x2="224.5" y2="224.5" style="stroke:#7856FA;stroke-width:1"/><line x1="224.5" y1="299.0" x2="224.5" y2="224.5" style="stroke:#7856FA;stroke-width:1"/><line x1="150.0" y1="150.0" x2="224.5" y2="224.5" style="stroke:#7856FA;stroke-width:1"/><line x1="150.0" y1="150.0" x2="224.5" y2="150.0" style="stroke:#7856FA;stroke-width:1"/><line x1="224.5" y1="224.5" x2="224.5" y2="150.0" style="stroke:#7856FA;stroke-width:1"/><line x1="1.0" y1="150.0" x2="1.0" y2="224.5" style="stroke:#7856FA;stroke-width:1"/><line x1="1.0" y1="150.0" x2="75.5" y2="150.0" style="stroke:#7856FA;stroke-width:1"/><line x1="1.0" y1="224.5" x2="75.5" y2="150.0" style="stroke:#7856FA;stroke-width:1"/><line x1="150.0" y1="150.0" x2="75.5" y2="150.0" style="stroke:#7856FA;stroke-width:1"/><line x1="150.0" y1="150.0" x2="75.5" y2="75.5" style="stroke:#7856FA;stroke-width:1"/><line x1="75.5" y1="150.0" x2="75.5" y2="75.5" style="stroke:#7856FA;stroke-width:1"/><line x1="1.0" y1="1.0" x2="75.5" y2="75.5" style="stroke:#7856FA;stroke-width:1"/><line x1="1.0" y1="1.0" x2="75.5" y2="1.0" style="stroke:#7856FA;stroke-width:1"/><line x1="75.5" y1="75.5" x2="75.5" y2="1.0" style="stroke:#7856FA;stroke-width:1"/><line x1="150.0" y1="1.0" x2="150.0" y2="75.5" style="stroke:#7856FA;stroke-width:1"/><line x1="150.0" y1="1.0" x2="224.5" y2="1.0" style="stroke:#7856FA;stroke-width:1"/><line x1="150.0" y1="75.5" x2="224.5" y2="1.0" style="stroke:#7856FA;stroke-width:1"/><line x1="299.0" y1="150.0" x2="224.5" y2="150.0" style="stroke:#7856FA;stroke-width:1"/><line x1="299.0" y1="150.0" x2="299.0" y2="75.5" style="stroke:#7856FA;stroke-width:1"/><line x1="224.5" y1="150.0" x2="299.0" y2="75.5" style="stroke:#7856FA;stroke-width:1"/><line x1="150.0" y1="150.0" x2="75.5" y2="224.5" style="stroke:#7856FA;stroke-width:1"/><line x1="150.0" y1="150.0" x2="150.0" y2="224.5" style="stroke:#7856FA;stroke-width:1"/><line x1="75.5" y1="224.5" x2="150.0" y2="224.5" style="stroke:#7856FA;stroke-width:1"/><line x1="150.0" y1="150.0" x2="150.0" y2="224.5" style="stroke:#7856FA;stroke-width:1"/><line x1="150.0" y1="150.0" x2="224.5" y2="224.5" style="stroke:#7856FA;stroke-width:1"/><line x1="150.0" y1="224.5" x2="224.5" y2="224.5" style="stroke:#7856FA;stroke-width:1"/><line x1="299.0" y1="150.0" x2="299.0" y2="224.5" style="stroke:#7856FA;stroke-width:1"/><line x1="299.0" y1="150.0" x2="224.5" y2="150.0" style="stroke:#7856FA;stroke-width:1"/><line x1="299.0" y1="224.5" x2="224.5" y2="150.0" style="stroke:#7856FA;stroke-width:1"/><line x1="150.0" y1="150.0" x2="75.5" y2="224.5" style="stroke:#7856FA;stroke-width:1"/><line x1="150.0" y1="150.0" x2="75.5" y2="150.0" style="stroke:#7856FA;stroke-width:1"/><line x1="75.5" y1="224.5" x2="75.5" y2="150.0" style="stroke:#7856FA;stroke-width:1"/><line x1="1.0" y1="1.0" x2="1.0" y2="75.5" style="stroke:#7856FA;stroke-width:1"/><line x1="1.0" y1="1.0" x2="75.5" y2="75.5" style="stroke:#7856FA;stroke-width:1"/><line x1="1.0" y1="75.5" x2="75.5" y2="75.5" style="stroke:#7856FA;stroke-width:1"/><line x1="150.0" y1="1.0" x2="150.0" y2="75.5" style="stroke:#7856FA;stroke-width:1"/><line x1="150.0" y1="1.0" x2="75.5" y2="1.0" style="stroke:#7856FA;stroke-width:1"/><line x1="150.0" y1="75.5" x2="75.5" y2="1.0" style="stroke:#7856FA;stroke-width:1"/><line x1="299.0" y1="1.0" x2="224.5" y2="75.5" style="stroke:#7856FA;stroke-width:1"/><line x1="299.0" y1="1.0" x2="224.5" y2="1.0" style="stroke:#7856FA;stroke-width:1"/><line x1="224.5" y1="75.5" x2="224.5" y2="1.0" style="stroke:#7856FA;stroke-width:1"/><line x1="299.0" y1="1.0" x2="224.5" y2="75.5" style="stroke:#7856FA;stroke-width:1"/><line x1="299.0" y1="1.0" x2="299.0" y2="75.5" style="stroke:#7856FA;stroke-width:1"/><line x1="224.5" y1="75.5" x2="299.0" y2="75.5" style="stroke:#7856FA;stroke-width:1"/><line x1="75.5" y1="299.0" x2="75.5" y2="224.5" style="stroke:#7856FA;stroke-width:1"/><line x1="75.5" y1="299.0" x2="150.0" y2="224.5" style="stroke:#7856FA;stroke-width:1"/><line x1="75.5" y1="224.5" x2="150.0" y2="224.5" style="stroke:#7856FA;stroke-width:1"/><line x1="224.5" y1="299.0" x2="150.0" y2="224.5" style="stroke:#7856FA;stroke-width:1"/><line x1="224.5" y1="299.0" x2="224.5" y2="224.5" style="stroke:#7856FA;stroke-width:1"/><line x1="150.0" y1="224.5" x2="224.5" y2="224.5" style="stroke:#7856FA;stroke-width:1"/><line x1="224.5" y1="224.5" x2="299.0" y2="224.5" style="stroke:#7856FA;stroke-width:1"/><line x1="224.5" y1="224.5" x2="224.5" y2="150.0" style="stroke:#7856FA;stroke-width:1"/><line x1="299.0" y1="224.5" x2="224.5" y2="150.0" style="stroke:#7856FA;stroke-width:1"/><line x1="1.0" y1="224.5" x2="75.5" y2="224.5" style="stroke:#7856FA;stroke-width:1"/><line x1="1.0" y1="224.5" x2="75.5" y2="150.0" style="stroke:#7856FA;stroke-width:1"/><line x1="75.5" y1="224.5" x2="75.5" y2="150.0" style="stroke:#7856FA;stroke-width:1"/><line x1="75.5" y1="150.0" x2="1.0" y2="75.5" style="stroke:#7856FA;stroke-width:1"/><line x1="75.5" y1="150.0" x2="75.5" y2="75.5" style="stroke:#7856FA;stroke-width:1"/><line x1="1.0" y1="75.5" x2="75.5" y2="75.5" style="stroke:#7856FA;stroke-width:1"/><line x1="75.5" y1="75.5" x2="150.0" y2="75.5" style="stroke:#7856FA;stroke-width:1"/><line x1="75.5" y1="75.5" x2="75.5" y2="1.0" style="stroke:#7856FA;stroke-width:1"/><line x1="150.0" y1="75.5" x2="75.5" y2="1.0" style="stroke:#7856FA;stroke-width:1"/><line x1="150.0" y1="75.5" x2="224.5" y2="75.5" style="stroke:#7856FA;stroke-width:1"/><line x1="150.0" y1="75.5" x2="224.5" y2="1.0" style="stroke:#7856FA;stroke-width:1"/><line x1="224.5" y1="75.5" x2="224.5" y2="1.0" style="stroke:#7856FA;stroke-width:1"/><line x1="224.5" y1="150.0" x2="224.5" y2="75.5" style="stroke:#7856FA;stroke-width:1"/><line x1="224.5" y1="150.0" x2="299.0" y2="75.5" style="stroke:#7856FA;stroke-width:1"/><line x1="224.5" y1="75.5" x2="299.0" y2="75.5" style="stroke:#7856FA;stroke-width:1"/></svg>